<svg version="1.0" xmlns="http://www.w3.org/2000/svg"
 width="512.000000pt" height="512.000000pt" viewBox="0 0 512.000000 512.000000"
 preserveAspectRatio="xMidYMid meet">

<g transform="translate(0.000000,512.000000) scale(0.100000,-0.100000)"
fill="#000000" stroke="none">
<path d="M2380 5109 c-541 -69 -1008 -451 -1179 -966 -52 -156 -66 -242 -66
-418 0 -160 0 -160 32 -228 43 -90 126 -173 218 -218 68 -33 74 -34 190 -34
114 0 123 1 188 32 88 42 172 126 216 214 27 55 34 86 46 195 18 169 39 229
118 332 84 111 237 189 387 199 242 16 474 -148 544 -386 20 -70 21 -209 1
-286 -33 -126 -129 -252 -246 -322 -62 -37 -190 -73 -260 -73 -215 0 -403
-150 -448 -358 -15 -74 -15 -1140 0 -1214 28 -130 127 -257 242 -311 254 -119
533 4 630 278 7 18 13 181 16 404 l6 374 90 37 c461 187 793 608 872 1104 19
124 13 403 -12 513 -105 472 -432 862 -870 1038 -222 89 -484 124 -715 94z"/>
<path d="M2455 886 c-84 -21 -147 -57 -211 -121 -177 -176 -177 -453 1 -630
258 -259 695 -118 757 244 24 141 -22 281 -127 387 -112 113 -269 158 -420
120z"/>
</g>
</svg>
